<svg width="85" height="82" viewBox="0 0 85 82" fill="none" xmlns="http://www.w3.org/2000/svg">
    <path d="M29.518 31.8188C38.394 31.8188 45.5894 24.9677 45.5894 16.5166C45.5894 8.06539 38.394 1.21436 29.518 1.21436C20.642 1.21436 13.4465 8.06539 13.4465 16.5166C13.4465 24.9677 20.642 31.8188 29.518 31.8188Z" stroke="black" stroke-linecap="round" stroke-linejoin="round"/>
    <path d="M29.5179 74.6648H0.589355V71.3467C0.640533 66.6813 1.93278 62.1041 4.34538 58.0434C6.75802 53.9824 10.2123 50.5699 14.3855 48.1247C18.5588 45.6794 23.3149 44.2812 28.2096 44.0606C28.646 44.0409 29.0822 44.0306 29.5179 44.0298C29.9537 44.0306 30.39 44.0409 30.8263 44.0606C35.721 44.2812 40.4771 45.6794 44.6504 48.1247C47.0502 49.5308 49.2122 51.2567 51.0751 53.2419" stroke="black" stroke-linecap="round" stroke-linejoin="round"/>
    <path d="M84.1608 50.1821L58.4465 80.7865L45.5894 71.6052" stroke="black" stroke-linecap="round" stroke-linejoin="round"/>
</svg>
