<svg width="63" height="79" viewBox="0 0 63 79" fill="none" xmlns="http://www.w3.org/2000/svg">
    <path d="M61.3438 1.625V50.2493H42.5V19.5252C42.5 14.7778 44.4853 10.2247 48.0192 6.8678C51.5531 3.51087 56.3461 1.625 61.3438 1.625Z" stroke="black" stroke-width="2" stroke-linecap="round" stroke-linejoin="round"/>
    <path d="M50.375 49.9824H61.3438V72.4244C61.3438 73.7707 60.7808 75.0618 59.7786 76.0138C58.7765 76.9658 57.4173 77.5005 56 77.5005H55.7188C54.3016 77.5005 52.9424 76.9658 51.9402 76.0138C50.9381 75.0618 50.375 73.7707 50.375 72.4244V49.9824Z" fill="black" stroke="black" stroke-width="2" stroke-linecap="round" stroke-linejoin="round"/>
    <path d="M14.375 77.4996C12.6593 77.4996 11.014 76.8522 9.80088 75.6998C8.58775 74.5475 7.90625 72.9845 7.90625 71.3548L10.7188 37.959H18.3124L21.1249 71.3548C21.1258 72.1847 20.9497 73.0062 20.6071 73.7697C20.2646 74.5332 19.7627 75.2229 19.132 75.7971C18.5012 76.3713 17.7545 76.8182 16.9369 77.1109C16.1193 77.4035 15.2478 77.5357 14.375 77.4996Z" fill="black" stroke="black" stroke-width="2" stroke-linecap="round" stroke-linejoin="round"/>
    <path d="M27.0313 25.9375C26.5752 28.8518 25.0321 31.5134 22.6833 33.4375C20.3344 35.3616 17.336 36.4201 14.2344 36.4201C11.1328 36.4201 8.1344 35.3616 5.78551 33.4375C3.43663 31.5134 1.89356 28.8518 1.4375 25.9375H27.0313Z" stroke="black" stroke-width="2" stroke-linecap="round" stroke-linejoin="round"/>
    <path d="M1.4375 3.76172V25.9366" stroke="black" stroke-width="2" stroke-linecap="round" stroke-linejoin="round"/>
    <path d="M14.0938 3.76172V25.4022" stroke="black" stroke-width="2" stroke-linecap="round" stroke-linejoin="round"/>
    <path d="M27.0312 3.76172V25.9366" stroke="black" stroke-width="2" stroke-linecap="round" stroke-linejoin="round"/>
</svg>
