<svg width="83" height="72" viewBox="0 0 83 72" fill="none" xmlns="http://www.w3.org/2000/svg">
    <path d="M9.16382 54.6875H72.7262V58.9062C72.7262 61.8899 71.541 64.7514 69.4312 66.8612C67.3214 68.971 64.4599 70.1562 61.4762 70.1562H20.4138C17.4301 70.1562 14.5686 68.971 12.4589 66.8612C10.3491 64.7514 9.16382 61.8899 9.16382 58.9062V54.6875Z" fill="#DDDDDD" stroke="black" stroke-width="2" stroke-linecap="round" stroke-linejoin="round"/>
    <path d="M65.1322 37.5314H72.4448C73.5763 37.4937 74.7037 37.684 75.7601 38.0911C76.8165 38.4982 77.7802 39.1137 78.5937 39.901C79.4072 40.6883 80.0539 41.6313 80.4954 42.6737C80.9369 43.7162 81.1641 44.8368 81.1635 45.9689C81.1635 48.2812 80.2449 50.4989 78.6098 52.134C76.9748 53.7691 74.7571 54.6877 72.4448 54.6877H9.44472C8.31262 54.6883 7.19205 54.4611 6.1496 54.0196C5.10714 53.5781 4.16412 52.9313 3.37684 52.1178C2.58955 51.3042 1.97402 50.3406 1.56692 49.2842C1.15983 48.2279 0.969485 47.1004 1.00722 45.9689C0.967935 44.8503 1.15938 43.7356 1.5695 42.6941C1.97962 41.6527 2.5997 40.7068 3.39117 39.9153C4.18263 39.1238 5.12848 38.5037 6.16994 38.0936C7.2114 37.6835 8.32611 37.4921 9.44472 37.5314H34.1948" fill="#DDDDDD"/>
    <path d="M65.1322 37.5314H72.4448C73.5763 37.4937 74.7037 37.684 75.7601 38.0911C76.8165 38.4982 77.7802 39.1137 78.5937 39.901C79.4072 40.6883 80.0539 41.6313 80.4954 42.6737C80.9369 43.7162 81.1641 44.8368 81.1635 45.9689C81.1635 48.2812 80.2449 50.4989 78.6098 52.134C76.9748 53.7691 74.7571 54.6877 72.4448 54.6877H9.44472C8.31262 54.6883 7.19205 54.4611 6.1496 54.0196C5.10714 53.5781 4.16412 52.9313 3.37684 52.1178C2.58955 51.3042 1.97402 50.3406 1.56692 49.2842C1.15983 48.2279 0.969485 47.1004 1.00722 45.9689C0.967935 44.8503 1.15938 43.7356 1.5695 42.6941C1.97962 41.6527 2.5997 40.7068 3.39117 39.9153C4.18263 39.1238 5.12848 38.5037 6.16994 38.0936C7.2114 37.6835 8.32611 37.4921 9.44472 37.5314H34.1948" stroke="black" stroke-width="2" stroke-linecap="round" stroke-linejoin="round"/>
    <path d="M81.1637 31.9063C81.1425 33.39 80.536 34.8052 79.4762 35.8438C78.9832 36.3958 78.375 36.833 77.6947 37.1245C77.0144 37.4161 76.2784 37.5549 75.5387 37.5313H60.9137L51.3512 48.5L41.7887 37.5313H6.35122C5.62517 37.5323 4.90648 37.3853 4.2391 37.0994C3.57173 36.8134 2.9696 36.3944 2.46953 35.868C1.96946 35.3416 1.58194 34.7189 1.33056 34.0377C1.07917 33.3566 0.969191 32.6313 1.00741 31.9063C0.969191 31.1812 1.07917 30.456 1.33056 29.7748C1.58194 29.0937 1.96946 28.4709 2.46953 27.9445C2.9696 27.4181 3.57173 26.9992 4.2391 26.7132C4.90648 26.4272 5.62517 26.2802 6.35122 26.2813H75.5387C77.0305 26.2813 78.4613 26.8739 79.5162 27.9288C80.5711 28.9837 81.1637 30.4144 81.1637 31.9063Z" fill="white" stroke="black" stroke-width="2" stroke-linecap="round" stroke-linejoin="round"/>
    <path d="M33.3512 1.25H48.82C55.2349 1.25 61.3871 3.7983 65.9231 8.33434C70.4592 12.8704 73.0076 19.0226 73.0076 25.4375H9.16382C9.16382 19.0226 11.7121 12.8704 16.2481 8.33434C20.7841 3.7983 26.9363 1.25 33.3512 1.25Z" fill="#DDDDDD" stroke="black" stroke-width="2" stroke-linecap="round" stroke-linejoin="round"/>
    <path d="M25.1948 13.9062L28.5699 17.5625" stroke="black" stroke-width="2" stroke-linecap="round" stroke-linejoin="round"/>
    <path d="M55.5701 12.5L59.2263 16.4375" stroke="black" stroke-width="2" stroke-linecap="round" stroke-linejoin="round"/>
    <path d="M38.6951 14.1875L42.6326 10.5312" stroke="black" stroke-width="2" stroke-linecap="round" stroke-linejoin="round"/>
</svg>
